<?xml version="1.0" encoding="UTF-8"?>
<svg version="1.1" viewBox="0 0 2048 2048" width="1280" height="1280" xmlns="http://www.w3.org/2000/svg">
<path transform="translate(561,61)" d="m0 0h1063l26 1 26 3 21 5 23 8 27 13 21 14 14 11 15 14 12 13 12 16 7 11 8 13 10 22 8 24 5 22 3 30v1483l-3 29-6 25-6 18-7 16-10 19-10 15-9 12-9 10-7 8-13 12-13 10-10 7-15 9-16 8-20 8-21 6-20 4-18 2h-1115l-28-4-23-6-21-8-19-9-22-14-13-10-12-11-5-4-7-8-11-12-13-18-12-21-9-20-8-24-5-25-2-17-1-28v-88h-112l-12-3-10-6-8-8-6-10-3-8-1-4v-12l3-12 4-8 9-10 8-6 10-4 4-1 114-1v-298h-108l-12-2-12-6-10-9-7-12-3-11v-12l3-12 5-9 7-8 9-6 9-4 12-2h108l-1-32v-194l-1-72h-98l-15-1-13-4-11-8-7-9-5-10-2-8v-13l4-13 6-10 8-8 14-7 10-2h102l8 1v-300h-112l-12-3-10-6-9-9-7-13-2-9v-12l3-11 4-8 9-10 8-6 10-4 4-1h115v-110l2-20 4-22 8-26 9-21 8-15 7-11 8-11 7-9 10-11 1-2h2l2-4h2v-2l8-7 12-10 21-14 16-9 18-8 21-7 20-5 24-3zm-18 93-21 3-16 5-12 5-11 6-13 9-10 9-12 12-8 11-8 13-8 18-5 19-2 15v110l112 1 12 3 11 7 7 7 6 10 3 10v15l-4 13-6 9-2 4-4 2-9 6-9 3-7 1-109 1-1 1v298l106 1 11 1 12 5 9 7 6 7 5 10 2 8v14l-2 9-6 11-7 8-7 5-11 4-5 1-20 1-93 1v298l104 1 15 2 9 4 9 6 8 10 4 8 2 8v15l-3 10-4 8-9 10-8 5-12 4-12 1-103 1v299l113 1 13 4 9 6 8 8 6 12 2 7v15l-2 8-6 12-6 7-11 7-9 3-6 1-111 1v112l3 19 6 18 8 17 8 12 7 9 9 10h2v2l14 11 16 10 16 7 17 5 11 2 11 1 172 1h724l200-1 17-2 19-5 17-7 14-8 12-9 10-9 8-8 11-15 7-12 7-17 5-19 2-18v-1475l-2-20-5-20-8-18-6-11-8-11-12-14-11-9-13-9-12-7-21-8-18-4-10-1z"/>
<path transform="translate(1070,1082)" d="m0 0h45l29 3 31 6 27 8 21 8 20 9 22 12 27 18 14 11 10 9 8 7 20 20 9 11 14 18 13 20 8 13 8 16 10 22 8 21 8 28 6 28 4 33 1 19v12l-2 13-7 14-6 7-11 7-12 4-60 1h-528l-17-1-11-4-9-6-7-7-6-10-3-8-1-6v-22l3-32 5-29 7-28 9-26 8-19 11-23 14-23 8-12 12-16 7-9h2l2-4 11-12 16-16 11-9 15-12 24-16 16-9 15-8 29-12 25-8 27-6 20-3zm20 92-21 1-28 4-23 6-22 8-16 8-17 9-14 10-14 11-4 3v2l-4 2-15 15-9 11-12 16-12 20-8 16-8 19-5 15-9 36v1h487l-1-10-6-25-9-26-9-20-14-24-14-19-12-14-13-13-14-11-12-9-16-10-19-10-23-9-25-7-23-4-8-1z"/>
<path transform="translate(1074,565)" d="m0 0h37l22 3 22 5 20 7 16 7 18 10 12 8 13 10 11 10 8 7 1 3h2l9 11 13 17 9 15 9 17 9 24 6 22 4 27v39l-4 26-6 22-6 17-11 23-10 16-14 19-5 6h-2l-2 4-12 12-11 9-15 11-15 9-16 8-16 7-23 7-21 4-18 2h-30l-25-3-28-7-25-10-21-11-15-10-13-10-16-15-7-7-9-11-10-13-12-20-11-23-7-21-5-21-3-23v-33l2-17 4-21 5-17 8-20 8-16 12-20 11-14 7-8 6-7h2l2-4 8-7 12-10 17-12 22-12 19-8 19-6 18-4zm8 92-20 3-18 6-16 8-11 7-13 11-8 8-12 16-8 14-6 15-4 15-2 11-1 19 1 14 6 25 7 17 8 13 9 12 6 7 8 7 13 10 18 10 16 6 17 4 9 1h24l19-3 18-6 16-8 11-7 11-9 6-5 9-11 9-12 8-15 7-20 3-17 1-10v-11l-2-19-4-16-6-15-9-17-10-13-9-10-11-9-15-10-17-8-21-6-15-2z"/>
</svg>
