<?xml version="1.0" encoding="UTF-8"?>
<svg version="1.1" viewBox="0 0 2048 2048" width="1280" height="1280" xmlns="http://www.w3.org/2000/svg">
<path transform="translate(1425,988)" d="m0 0 29 1 30 3 30 5 32 8 23 8 17 7 24 11 23 13 12 8 17 12 17 14 13 12 20 20 9 11 11 13 12 17 10 14 17 28 17 33 12 24 13 33 11 30 9 30 11 41 12 58 9 57 4 32 5 56 2 39 1 35v48l-1 24-4 33-6 30-7 25-8 22-13 29-16 27-10 14-11 14-11 12-4 5h-2l-2 4-8 8-11 9-13 11-14 10-17 11-26 14-25 11-33 11-25 6-27 5-25 4h-1078l-4-2-36-6-27-6-26-8-29-12-16-8-20-11-23-16-16-13-10-9-8-7-4-4v-2h-2l-7-8-11-12-14-19-9-14-11-19-12-25-8-21-7-23-7-34-4-30-2-40v-26l1-43 3-55 5-52 7-49 6-35 10-48 6-25 14-49 13-36 13-32 25-50 16-27 8-12 12-17 10-13 11-13 9-11 23-23 11-9 12-10 23-16 26-15 16-8 25-11 33-11 31-7 25-4 29-3h39l16 4 18 8 18 10 41 26 40 26 22 14 25 14 24 11 40 15 19 7 37 10 27 5 30 4 13 1h45l23-2 28-4 32-7 27-8 36-13 28-11 23-11 24-14 20-13 17-11 22-14 20-13 26-16 19-10 17-6 9-2zm-826 122-23 2-27 5-25 7-15 6-25 12-18 11-12 9-13 11-12 12-7 8-12 14-9 12-13 20-10 16-12 23-12 24-15 39-7 21-12 43-12 56-8 48-5 42-3 33-3 81v54l3 27 6 29 7 21 9 20 11 18 9 12 11 13 10 10 11 9 12 9 13 8 19 10 21 8 20 6 21 4 27 3 15 1h1019l25-2 25-4 24-6 22-8 23-11 21-14 11-9 10-9 14-14 13-18 11-19 9-21 7-23 4-20 3-24 1-19v-18l-3-88-2-32-5-47-9-57-11-52-9-34-9-30-15-40-12-25-14-28-14-22-8-12-10-14-11-12-7-8-9-10-7-7-14-11-18-12-20-11-21-9-21-7-27-6-22-3-23-1-21 12-37 24-22 14-15 10-18 11-24 14-33 16-37 15-38 13-40 11-34 7-34 5-35 3h-52l-34-3-34-5-33-7-36-10-36-12-28-11-25-11-28-14-27-16-25-16-37-24-25-16-17-10z"/>
<path transform="translate(958)" d="m0 0h105v1l49 8 37 9 36 12 22 9 33 16 21 12 22 14 19 14 13 10 11 9 12 11 2 1v2l4 2 8 8 8 7 14 15 7 8 10 11 26 34 10 15 21 35 11 23 9 20 12 33 7 25 7 29 6 42 2 23 1 19v32l-2 33-3 26-4 25-7 30-7 24-11 31-9 20-14 29-19 32-12 17-6 8-13 17-11 13-5 6h-2l-2 4-8 8-7 8-12 12-8 7-12 11-13 11-19 14-15 11-39 24-23 11-19 9-30 11-22 7-33 8-36 6-25 3-38 2h-18l-37-2-32-4-24-4-44-11-34-12-21-9-31-15-28-17-11-7-11-8-16-12-14-11-24-22-8-7-15-15-7-8-11-12-10-12-12-16-13-18-13-21-14-24-13-27-10-25-12-36-8-33-5-28-4-33-1-17v-57l2-27 6-40 7-31 7-25 14-39 17-35 6-12 8-13 13-21 14-19 16-21 11-12 1-2h2l2-4 8-8 7-8 13-13 8-7 16-15 17-13 16-12 16-11 28-17 23-12 28-13 43-15 41-10 31-5 20-3zm25 121-31 3-24 4-28 7-34 12-33 16-20 12-12 8-12 9-14 11-10 9-8 7-7 6v2l-4 2-14 15v2h-2l-7 8-11 14-12 16-10 15-11 19-8 16-7 15-8 21-8 27-5 23-4 27-2 27v39l3 34 5 30 8 30 11 31 16 33 14 23 12 17 14 18 24 26 10 10 8 7 12 11 13 10 19 14 22 13 11 6 27 13 27 10 40 10 36 5 36 2 32-1 21-2 27-4 33-8 20-7 19-7 32-16 20-12 17-12 18-14 12-11 8-7 12-11 7-8 14-15 13-17 10-13 12-19 9-16 8-16 8-18 7-20 7-24 4-17 5-35 2-36v-13l-2-36-5-35-9-36-10-28-11-24-10-19-8-13-10-15-14-18-8-10-16-17-3-4h-2l-2-4-8-7-8-8-8-7-15-12-18-13-21-13-16-9-28-13-29-10-31-8-24-4-18-2-16-1z"/>
</svg>
