<?xml version="1.0" encoding="UTF-8"?>
<svg version="1.1" viewBox="0 0 2000 2000" width="1280" height="1280" xmlns="http://www.w3.org/2000/svg">
<path transform="translate(725,338)" d="m0 0h35l24 1 27 3 21 5 15 5 21 9 16 8 19 10 20 13 17 13 14 12 24 24 9 11 12 14 30 40 13 19 11 15 12 17 14 19 9 11v2l69 1 18 1 9 2 3 4 3 11 11 82 8 51 5 26 4 12 8 14 16 25 23 34 4 5 9-1 30-7 39-9 49-10 44-8 57-9 47-6 36-3 37-2h76l50 3 36 4 32 6 36 8 31 8 33 10 22 8 16 7 2 3-5 1-36-9-45-8-26-4-28-3-17-1h-95l-52 3-42 4-40 5-48 8-48 10-48 12-38 11-55 18-43 16-47 18-41 15-32 13-13 7-2 3-2 25-1 23-2 111-2 41-2 13-4 8-3-1-3-9-7-35-5-14-7-11-11-12-6-6h-135l-30 1 1 195 2 29 4 18 6 11 7 8v2h2v2l4 2 10 7 19 10 21 8 25 9 2 1v2l-7 2-12 1h-137l-48-1-48-2-2-1 2-4 10-5 38-12 16-8 11-9 9-10 6-11 3-13 1-9 1-22 1-69v-104l-1-23-17 4-125 40-56 15-54 12-41 8-43 7-43 5-46 3h-76l-49-4-34-5-24-5-30-8-36-12-22-9-30-14-21-11-23-14-14-10-14-11-13-11-3-3v-2l9 2 20 9 28 11 28 9 30 7 28 5 31 4 39 3 23 1h21l43-2 40-4 41-6 47-9 47-11 49-13 56-17 41-13 62-21 55-20 47-17 21-9 9-5 2-7 1-73v-139l-1-78-1-34-30-1h-34l-60 1-51 2-1 29-1 58-1 188-1 22-2 10-2 4-16 6-69 21-41 12-16 4h-5l-1-8-1-41-1-180-1-89-1-31-2-18-7-14-6-7-11-8-16-8-13-4-23-4-20-3-3-3 3-6 3-1 17-1 344-2 42-1 21-1 7-1 1-8v-19l-3-28-6-21-8-18-10-16-9-12-12-14-20-20-14-11-10-7-14-8-15-7-24-8-25-4h-16l-43 4h-17l-6-5 1-7 7-7 15-10 25-12 30-10 9-2zm212 322-6 3-2 12-1 34v215l1 36 1 12 1 2 16-4 39-15 34-13 36-13 31-11 25-11 5-3-1-5-12-19-21-31-15-22-17-25-13-19-30-44-17-25-16-23-13-18-8-10-6-3zm181 334-33 11-28 12-12 6v3l20-4 38-9 15-5 6-4v-9l-1-1z" fill="#010101"/>
<path transform="translate(690,1250)" d="m0 0h7l1 10 1 34 1 82v167l299-2 36-1 27-10 16-8 16-9 11-8 13-11 12-11 8-7 12-12 8-7 55-55 2-3h2l2-4 14-14 1-2h2l2-4 23-23 5-2 2 2v7l-6 17-17 36-13 26-11 23-40 80-10 19-16 31-12 20-2 2-22 1-92 1h-452l-105-1-24-1-3-2 1-5 5-2 28-5 19-5 15-6 12-7 9-8 6-10 3-8 2-18 1-33 1-99 1-64 2-51 2-7 62-13 48-12z" fill="#020202"/>
<path transform="translate(1620,892)" d="m0 0 2 2-8 3-29 7-42 10-88 24-36 11-36 12-15 6-8 6 1 6 14 23 27 40 16 23 14 20 11 15 8 11 2-82 1-58 3-4 19-5 30-4-2 17-1 37-2 173-2 231h-17l-7-3-11-15-29-44-29-43-19-28-16-23-16-24-10-14-26-39-10-14-12-18-13-19-17-25-26-38-12-17-16-21-11-14-12-16-5-8 1-4 9-6 18-8 28-9 45-12 30-7 27-5 30-6 50-11 79-15 70-10 41-7z" fill="#010101"/>
<path transform="translate(1387,415)" d="m0 0h148l42 2 9 2 3 3-1 5-25 4-16 3-12 5-13 10-7 7-7 10-4 7-3 17-1 16-1 55-1 216-2 2-32 5h-13l-1-1-1-75-1-133-1-55-2-30-4-15-8-14-8-9-10-7-12-6-14-4-29-5-10-4-5-4v-4l2-1 10-1z" fill="#020202"/>
</svg>
