<?xml version="1.0" standalone="no"?>
<!DOCTYPE svg PUBLIC "-//W3C//DTD SVG 20010904//EN"
 "http://www.w3.org/TR/2001/REC-SVG-20010904/DTD/svg10.dtd">
<svg version="1.0" xmlns="http://www.w3.org/2000/svg"
 width="430.000000pt" height="135.000000pt" viewBox="0 0 430.000000 135.000000"
 preserveAspectRatio="xMidYMid meet">

<g transform="translate(0.000000,135.000000) scale(0.100000,-0.100000)"
fill="#000000" stroke="none">
<path d="M2622 1321 c-55 -35 -71 -124 -32 -174 l21 -26 -26 -100 c-14 -55
-25 -104 -25 -110 0 -7 28 -11 75 -11 l74 0 43 133 c54 168 56 223 12 268 -41
40 -96 48 -142 20z m117 -57 c28 -36 27 -49 -16 -191 l-38 -123 -39 0 c-35 0
-38 2 -32 23 3 12 13 55 23 94 17 72 17 73 -5 96 -30 32 -30 90 0 111 35 25
83 20 107 -10z"/>
<path d="M1214 1311 c-66 -40 -70 -126 -7 -181 32 -29 41 -32 82 -27 63 7 101
49 101 113 0 39 -5 51 -34 80 -40 40 -92 46 -142 15z m110 -42 c64 -51 6 -145
-73 -118 -58 20 -64 106 -9 129 36 14 53 12 82 -11z"/>
<path d="M80 740 l0 -530 95 0 95 0 0 225 0 225 258 -2 257 -3 3 -223 2 -222
90 0 90 0 0 223 c0 122 3 360 7 530 l6 307 -96 0 -97 0 -2 -212 -3 -213 -257
-3 -258 -2 0 215 0 215 -95 0 -95 0 0 -530z m150 275 l0 -215 300 0 300 0 0
215 0 215 49 0 c28 0 52 -4 56 -10 3 -5 3 -223 -1 -485 l-7 -475 -51 0 -51 0
0 217 0 218 -297 3 -298 2 0 -220 0 -220 -55 0 -55 0 0 485 0 485 55 0 55 0 0
-215z"/>
<path d="M2230 740 l0 -530 95 0 95 0 0 530 0 530 -95 0 -95 0 0 -530z m150 5
l0 -485 -55 0 -55 0 0 485 0 485 55 0 55 0 0 -485z"/>
<path d="M3241 1030 c-24 -5 -62 -19 -85 -30 -54 -25 -56 -25 -56 5 0 25 -1
25 -90 25 l-90 0 0 -410 0 -410 95 0 95 0 0 253 c0 224 2 257 19 293 22 48 59
77 121 94 87 23 171 -7 201 -73 17 -38 19 -68 19 -304 l0 -263 95 0 95 0 0
248 c0 240 1 248 24 299 19 40 34 57 66 73 102 52 213 29 250 -52 18 -39 20
-67 20 -305 l0 -263 96 0 95 0 -3 288 c-3 268 -5 291 -26 342 -31 80 -73 124
-150 162 -61 30 -74 33 -162 33 -81 -1 -103 -5 -152 -27 -32 -15 -74 -39 -93
-54 l-36 -27 -27 26 c-68 65 -213 100 -321 77z m-181 -95 c0 -30 2 -55 5 -55
4 0 22 16 42 35 55 54 130 77 233 73 103 -4 168 -32 216 -95 l31 -40 39 41
c22 23 62 53 89 67 43 21 64 24 155 24 93 0 111 -3 155 -26 55 -28 108 -89
126 -147 8 -23 14 -131 16 -294 l4 -258 -55 0 -56 0 0 239 c0 246 -4 279 -43
335 -40 57 -146 81 -242 55 -52 -14 -126 -90 -143 -145 -8 -27 -12 -116 -12
-263 l0 -221 -55 0 -55 0 0 243 c0 214 -3 247 -19 283 -39 86 -100 119 -206
112 -87 -5 -149 -44 -187 -117 l-28 -53 0 -234 0 -234 -55 0 -55 0 0 358 c0
197 3 362 7 365 3 4 26 7 50 7 l43 0 0 -55z"/>
<path d="M1180 620 l0 -410 95 0 95 0 0 410 0 410 -95 0 -95 0 0 -410z m148 3
l2 -363 -55 0 -55 0 0 358 c0 197 3 362 7 366 4 4 28 6 53 4 l45 -3 3 -362z"/>
<path d="M1565 440 c-66 -27 -90 -103 -55 -174 l22 -46 -25 -105 -25 -105 77
0 77 0 42 138 c46 151 51 208 25 249 -28 42 -92 62 -138 43z m99 -62 c24 -34
18 -92 -22 -213 -36 -108 -38 -110 -69 -113 -40 -4 -40 -2 -13 112 l20 85 -25
25 c-30 31 -32 65 -4 100 27 35 90 37 113 4z"/>
</g>
</svg>
